<?xml version="1.0" encoding="iso-8859-1"?>
<!-- Generator: Adobe Illustrator 19.0.0, SVG Export Plug-In . SVG Version: 6.00 Build 0)  -->
<svg version="1.1" id="Layer_1" xmlns="http://www.w3.org/2000/svg" xmlns:xlink="http://www.w3.org/1999/xlink" x="0px" y="0px"
	 viewBox="0 0 502.614 502.614" style="enable-background:new 0 0 502.614 502.614;" xml:space="preserve">
<g transform="translate(1 9)">
	<path style="fill:#FF7474;" d="M378.733,346.414c-5.973,4.267-13.653,4.267-20.48,0c-5.973-4.267-8.533-11.947-5.973-18.773
		c-5.973-4.267-8.533-11.947-5.973-18.773c2.56-6.827,9.387-11.947,16.213-11.947c2.56-6.827,8.533-11.947,16.213-11.947
		c7.68,0,13.653,5.12,16.213,11.947c6.827,0,13.653,4.267,16.213,11.947c0,0.853,0.853,1.707,0.853,2.56
		c0.853,6.827-1.707,12.8-6.827,17.067c2.56,6.827,0,14.507-5.973,18.773C392.387,351.534,384.707,350.68,378.733,346.414z
		 M183.32,327.64c2.56,6.827,0,14.507-5.973,18.773s-14.507,4.267-19.627,0c-5.973,4.267-13.653,4.267-20.48,0
		c-5.973-4.267-8.533-11.947-5.973-18.773c-5.973-4.267-8.533-11.947-5.973-18.773c2.56-6.827,9.387-11.947,16.213-11.947
		c2.56-6.827,8.533-11.947,16.213-11.947s13.653,5.12,16.213,11.947c6.827,0,13.653,4.267,16.213,11.947
		C191.853,315.694,189.293,323.374,183.32,327.64z M231.107,320.814c-5.973-4.267-8.533-11.947-5.973-18.773
		c-5.973-4.267-8.533-11.947-5.973-18.773c2.56-6.827,9.387-11.947,16.213-11.947c2.56-6.827,8.533-11.947,16.213-11.947
		c7.68,0,13.653,5.12,16.213,11.947c6.827,0,13.653,4.267,16.213,11.947c2.56,7.68,0,14.507-5.973,18.773
		c2.56,6.827,0,14.507-5.973,18.773c-5.973,4.267-14.507,4.267-19.627,0C244.76,325.08,237.08,325.934,231.107,320.814z"/>
	<polygon style="fill:#AE938D;" points="242.2,370.307 250.733,370.307 259.267,370.307 310.467,370.307 378.733,370.307 
		447,370.307 464.067,370.307 481.133,370.307 498.2,370.307 498.2,438.574 464.067,438.574 37.4,438.574 3.267,438.574 
		3.267,370.307 20.333,370.307 37.4,370.307 54.467,370.307 88.6,370.307 105.667,370.307 156.867,370.307 	"/>
	<path style="fill:#FFD0A1;" d="M132.973,131.374c-7.68,34.987-24.747,82.773-61.44,119.467c0,0,34.133,51.2,34.133,119.467H88.6
		H54.467H37.4V97.24c0,0,51.2-68.267,213.333-68.267c162.987,0,213.333,68.267,213.333,68.267v273.067H447h-68.267v-23.893
		c5.973,4.267,13.653,4.267,19.627,0s8.533-11.947,5.973-18.773c5.12-4.267,7.68-10.24,6.827-17.067h0.853l17.067-59.733
		c-36.693-36.693-53.76-84.48-61.44-119.467H250.733H132.973z"/>
	<path style="fill:#ECF4F7;" d="M105.667,370.307c0-68.267-34.133-119.467-34.133-119.467c36.693-36.693,53.76-84.48,61.44-119.467
		h117.76v128c-7.68,0-13.653,5.12-16.213,11.947c-6.827,0-13.653,4.267-16.213,11.947c-2.56,6.827,0.853,14.507,5.973,18.773
		c-2.56,6.827,0,14.507,5.973,18.773c5.973,4.267,14.507,4.267,20.48,0v49.493H242.2h-85.333H105.667z M177.347,346.414
		c5.973-4.267,8.533-11.947,5.973-18.773c5.973-4.267,8.533-11.947,5.973-18.773c-2.56-6.827-9.387-11.947-16.213-11.947
		c-2.56-6.827-8.533-11.947-16.213-11.947s-13.653,5.12-16.213,11.947c-6.827,0-13.653,4.267-16.213,11.947
		c-2.56,6.827,0,14.507,5.973,18.773c-2.56,6.827,0,14.507,5.973,18.773c5.973,4.267,14.507,4.267,20.48,0
		C162.84,350.68,170.52,351.534,177.347,346.414z M359.107,346.414c5.973,4.267,14.507,4.267,20.48,0v23.893H311.32h-51.2h-8.533
		v-49.493c5.973,4.267,13.653,4.267,19.627,0c5.973-4.267,8.533-11.947,5.973-18.773c5.973-4.267,8.533-11.947,5.973-18.773
		c-2.56-6.827-9.387-11.947-16.213-11.947c-2.56-6.827-8.533-11.947-16.213-11.947v-128h117.76
		c7.68,34.987,24.747,82.773,61.44,119.467l-17.067,59.733h-0.853c0-0.853,0-1.707-0.853-2.56
		c-2.56-6.827-9.387-11.947-16.213-11.947c-2.56-6.827-8.533-11.947-16.213-11.947c-7.68,0-13.653,5.12-16.213,11.947
		c-6.827,0-13.653,4.267-16.213,11.947c-2.56,7.68,0,14.507,5.973,18.773C350.573,334.467,352.28,342.147,359.107,346.414z"/>
</g>
<path style="fill:#51565F;" d="M465.067,468.907c-2.56,0-4.267-1.707-4.267-4.267v-12.8H42.667v12.8c0,2.56-1.707,4.267-4.267,4.267
	s-4.267-1.707-4.267-4.267v-12.8H4.267c-2.56,0-4.267-1.707-4.267-4.267v-68.267c0-2.56,1.707-4.267,4.267-4.267h12.8v-4.267
	c0-2.56,1.707-4.267,4.267-4.267s4.267,1.707,4.267,4.267v4.267h25.6v-4.267c0-2.56,1.707-4.267,4.267-4.267
	c2.56,0,4.267,1.707,4.267,4.267v4.267h25.6v-4.267c0-2.56,1.707-4.267,4.267-4.267c2.56,0,4.267,1.707,4.267,4.267v4.267H153.6
	v-19.627c0-0.853,0-0.853,0-1.707c0-0.853,0-0.853,0.853-0.853c0-0.853,0.853-0.853,1.707-0.853c0.853,0,0.853-0.853,1.707-0.853
	c0.853,0,0.853,0,1.707,0l0,0l0,0c0,0,0.853,0,0.853,0.853c4.267,3.413,10.24,3.413,15.36,0c4.267-3.413,5.973-9.387,4.267-14.507
	c-0.853-1.707,0-3.413,1.707-5.12c4.267-3.413,6.827-9.387,5.12-14.507l0,0c-1.707-5.12-6.827-8.533-11.947-8.533l0,0
	c-1.707,0-3.413-0.853-4.267-2.56c-1.707-5.12-6.827-8.533-11.947-8.533c-5.12,0-10.24,3.413-11.947,8.533
	c-0.853,1.707-2.56,2.56-4.267,2.56l0,0l0,0c-5.973,0-10.24,3.413-11.947,8.533c-1.707,5.12,0,11.093,5.12,14.507
	c1.707,0.853,2.56,3.413,1.707,5.12c-1.707,5.12,0,11.093,4.267,14.507c1.707,1.707,2.56,4.267,0.853,5.973
	c-1.707,1.707-4.267,2.56-5.973,0.853c-6.827-5.12-10.24-12.8-8.533-21.333c-5.973-5.973-8.533-14.507-5.973-22.187
	c2.56-7.68,9.387-13.653,17.067-14.507c3.413-7.68,11.093-11.947,18.773-11.947c8.533,0,15.36,5.12,18.773,11.947
	c7.68,0.853,14.507,6.827,17.067,14.507l0,0c2.56,7.68,0,16.213-5.973,22.187c1.707,7.68-1.707,16.213-8.533,21.333
	c-5.12,4.267-11.947,5.12-17.92,3.413v12.8h74.24l-5.12-11.093c0-0.853-0.853-0.853-0.853-1.707c0-1.707,0.853-3.413,2.56-3.413
	c1.707-0.853,4.267,0,5.973,1.707l7.68,14.507h1.707v-45.227c0-0.853,0-0.853,0-1.707s0-0.853,0.853-0.853
	c0-0.853,0.853-0.853,1.707-0.853c0.853,0,0.853-0.853,1.707-0.853c0.853,0,0.853,0,1.707,0l0,0l0,0c0.853,0,0.853,0,0.853,0.853
	c4.267,3.413,10.24,3.413,15.36,0c4.267-3.413,5.973-9.387,4.267-14.507c-0.853-1.707,0-3.413,1.707-5.12
	c4.267-3.413,6.827-9.387,5.12-14.507l0,0c-1.707-5.12-6.827-8.533-11.947-8.533l0,0c-1.707,0-3.413-0.853-4.267-2.56
	c-1.707-5.12-6.827-8.533-11.947-8.533c-5.12,0-10.24,3.413-11.947,8.533c-0.853,1.707-2.56,2.56-4.267,2.56l0,0l0,0
	c-5.973,0-10.24,3.413-11.947,8.533c-1.707,5.12,0,11.093,5.12,14.507c1.707,0.853,2.56,3.413,1.707,5.12
	c-1.707,5.12,0,11.093,4.267,14.507c1.707,1.707,2.56,4.267,0.853,5.973c-1.707,1.707-4.267,2.56-5.973,0.853
	c-6.827-5.12-10.24-12.8-8.533-21.333c-5.973-5.973-8.533-14.507-5.973-22.187c2.56-7.68,9.387-13.653,17.067-14.507
	c3.413-7.68,11.093-11.947,18.773-11.947c8.533,0,15.36,5.12,18.773,11.947c7.68,0.853,14.507,6.827,17.067,14.507l0,0
	c2.56,7.68,0,16.213-5.973,22.187c1.707,7.68-1.707,16.213-8.533,21.333c-5.12,4.267-11.947,5.12-17.92,3.413v38.4h1.707
	l7.68-14.507c0.853-1.707,3.413-2.56,5.973-1.707c1.707,0.853,2.56,2.56,2.56,3.413c0,0.853,0,1.707-0.853,1.707l-5.12,11.093H307.2
	v-4.267c0-2.56,1.707-4.267,4.267-4.267s4.267,1.707,4.267,4.267v4.267h59.733v-19.627c0-0.853,0-0.853,0-1.707
	c0-0.853,0-0.853,0.853-0.853l0,0l0,0c0-0.853,0.853-0.853,1.707-0.853c0.853,0,0.853,0,1.707-0.853c0.853,0,0.853,0,1.707,0l0,0
	l0,0c0,0,0.853,0,0.853,0.853c4.267,3.413,10.24,3.413,15.36,0c4.267-3.413,5.973-9.387,4.267-14.507
	c-0.853-1.707,0-3.413,1.707-5.12c4.267-3.413,6.827-9.387,5.12-14.507l0,0c-1.707-5.12-6.827-8.533-11.947-8.533l0,0
	c-1.707,0-3.413-0.853-4.267-2.56c-1.707-5.12-6.827-8.533-11.947-8.533s-10.24,3.413-11.947,8.533
	c-0.853,1.707-2.56,2.56-4.267,2.56l0,0l0,0c-5.973,0-10.24,3.413-11.947,8.533c-1.707,5.12,0,11.093,5.12,14.507
	c1.707,0.853,2.56,3.413,1.707,5.12c-1.707,5.12,0,11.093,4.267,14.507c1.707,1.707,2.56,4.267,0.853,5.973
	c-1.707,1.707-4.267,2.56-5.973,0.853c-6.827-5.12-10.24-12.8-8.533-21.333c-5.973-5.973-8.533-14.507-5.973-22.187
	c2.56-7.68,9.387-13.653,17.067-14.507c3.413-7.68,11.093-11.947,18.773-11.947c7.68,0,15.36,5.12,18.773,11.947
	c7.68,0.853,14.507,6.827,17.067,14.507l0,0c2.56,7.68,0,16.213-5.973,22.187c1.707,7.68-1.707,16.213-8.533,21.333
	c-5.12,4.267-11.947,5.12-17.92,3.413v12.8h59.733v-4.267c0-2.56,1.707-4.267,4.267-4.267s4.267,1.707,4.267,4.267v4.267h25.6
	v-4.267c0-2.56,1.707-4.267,4.267-4.267c2.56,0,4.267,1.707,4.267,4.267v4.267h12.8c2.56,0,4.267,1.707,4.267,4.267v68.267
	c0,2.56-1.707,4.267-4.267,4.267h-29.867v12.8C469.333,467.2,467.627,468.907,465.067,468.907z M8.533,443.307h486.4v-59.733h-115.2
	l0,0H260.267l0,0h-8.533l0,0H243.2l0,0h-85.333l0,0H8.533V443.307z M81.067,323.84c-1.707,0-4.267-1.707-4.267-3.413l-8.533-59.733
	c0-1.707,0-2.56,0.853-3.413c34.133-34.133,51.2-77.653,59.733-111.787h-56.32c-2.56,0-4.267-1.707-4.267-4.267
	c0-2.56,1.707-4.267,4.267-4.267h58.027c5.973-27.307,5.973-46.08,5.973-46.933c0-2.56,1.707-4.267,4.267-4.267
	c2.56,0,4.267,1.707,4.267,4.267c0,1.707,0,20.48-5.12,46.933h107.52V80.64c0-2.56,1.707-4.267,4.267-4.267
	c2.56,0,4.267,1.707,4.267,4.267v55.467h107.52c-5.12-26.453-5.12-45.227-5.12-46.933c0-2.56,1.707-4.267,4.267-4.267l0,0
	c2.56,0,4.267,1.707,4.267,4.267c0,0.853,0,19.627,5.973,46.933h58.027c2.56,0,4.267,1.707,4.267,4.267s-1.707,4.267-4.267,4.267
	h-56.32c8.533,34.133,24.747,77.653,58.88,111.787c0.853,0.853,1.707,2.56,0.853,3.413l-4.267,25.6c0,2.56-2.56,4.267-5.12,3.413
	c-2.56,0-4.267-2.56-3.413-5.12l4.267-23.04c-35.84-36.693-52.907-81.92-60.587-116.907H256v90.454c0,2.56-1.707,4.267-4.267,4.267
	s-4.267-1.707-4.267-4.267v-89.6H138.24c-7.68,34.987-24.747,80.213-60.587,116.907l8.533,58.027
	C85.333,321.28,83.627,323.84,81.067,323.84L81.067,323.84z M465.067,315.307c-2.56,0-4.267-1.707-4.267-4.267V107.947
	c-6.827-8.533-61.44-65.707-209.067-65.707S50.347,99.414,42.667,107.947V311.04c0,2.56-1.707,4.267-4.267,4.267
	s-4.267-1.707-4.267-4.267v-204.8c0-0.853,0-1.707,0.853-2.56c2.56-2.56,54.613-69.973,216.747-69.973
	c162.987,0,215.04,67.413,216.747,69.973c0.853,0.853,0.853,1.707,0.853,2.56v204.8C469.333,313.6,467.627,315.307,465.067,315.307z
	"/>
<g>
</g>
<g>
</g>
<g>
</g>
<g>
</g>
<g>
</g>
<g>
</g>
<g>
</g>
<g>
</g>
<g>
</g>
<g>
</g>
<g>
</g>
<g>
</g>
<g>
</g>
<g>
</g>
<g>
</g>
</svg>
